<mxfile host="65bd71144e">
    <diagram name="ページ1" id="ODrPmbd-owSrHWYyJO7F">
        <mxGraphModel dx="2157" dy="424" grid="1" gridSize="10" guides="1" tooltips="1" connect="1" arrows="1" fold="1" page="1" pageScale="1" pageWidth="827" pageHeight="1169" background="#ffffff" math="0" shadow="0">
            <root>
                <mxCell id="0"/>
                <mxCell id="1" parent="0"/>
                <mxCell id="4ESrfmdc0MQb4VluyIVh-58" value="" style="rounded=0;whiteSpace=wrap;html=1;movable=0;resizable=0;rotatable=0;deletable=0;editable=0;locked=1;connectable=0;" parent="1" vertex="1">
                    <mxGeometry x="-800" y="440" width="770" height="310" as="geometry"/>
                </mxCell>
                <mxCell id="4ESrfmdc0MQb4VluyIVh-57" value="" style="rounded=0;whiteSpace=wrap;html=1;movable=0;resizable=0;rotatable=0;deletable=0;editable=0;locked=1;connectable=0;" parent="1" vertex="1">
                    <mxGeometry x="-800" y="40" width="770" height="360" as="geometry"/>
                </mxCell>
                <mxCell id="4ESrfmdc0MQb4VluyIVh-2" value="" style="rounded=0;whiteSpace=wrap;html=1;movable=0;resizable=0;rotatable=0;deletable=0;editable=0;locked=1;connectable=0;" parent="1" vertex="1">
                    <mxGeometry x="-540" y="60" width="290" height="320" as="geometry"/>
                </mxCell>
                <mxCell id="4ESrfmdc0MQb4VluyIVh-1" value="ADXL375" style="rounded=0;whiteSpace=wrap;html=1;" parent="1" vertex="1">
                    <mxGeometry x="-780" y="170" width="80" height="40" as="geometry"/>
                </mxCell>
                <mxCell id="4ESrfmdc0MQb4VluyIVh-3" value="" style="endArrow=blockThin;html=1;rounded=0;fillColor=#fff2cc;strokeColor=#d6b656;strokeWidth=3;endFill=1;" parent="1" edge="1">
                    <mxGeometry width="50" height="50" relative="1" as="geometry">
                        <mxPoint x="-700" y="190" as="sourcePoint"/>
                        <mxPoint x="-540" y="190" as="targetPoint"/>
                    </mxGeometry>
                </mxCell>
                <mxCell id="4ESrfmdc0MQb4VluyIVh-5" value="&lt;ul style=&quot;font-size: 10px;&quot;&gt;&lt;li style=&quot;font-size: 10px;&quot;&gt;加速度（1kHz）&lt;/li&gt;&lt;/ul&gt;" style="text;html=1;strokeColor=none;fillColor=none;align=left;verticalAlign=top;whiteSpace=wrap;rounded=0;fontSize=10;labelPosition=right;verticalLabelPosition=bottom;" parent="1" vertex="1">
                    <mxGeometry x="-890" y="160" width="175" height="20" as="geometry"/>
                </mxCell>
                <mxCell id="4ESrfmdc0MQb4VluyIVh-9" value="FRAM" style="rounded=0;whiteSpace=wrap;html=1;" parent="1" vertex="1">
                    <mxGeometry x="-120" y="90" width="80" height="90" as="geometry"/>
                </mxCell>
                <mxCell id="4ESrfmdc0MQb4VluyIVh-11" value="" style="endArrow=blockThin;html=1;rounded=0;fillColor=#d5e8d4;strokeColor=#82b366;strokeWidth=3;endFill=1;" parent="1" edge="1">
                    <mxGeometry width="50" height="50" relative="1" as="geometry">
                        <mxPoint x="-250" y="109.72000000000003" as="sourcePoint"/>
                        <mxPoint x="-120" y="110" as="targetPoint"/>
                        <Array as="points"/>
                    </mxGeometry>
                </mxCell>
                <mxCell id="4ESrfmdc0MQb4VluyIVh-19" value="I2C 96kbps" style="text;html=1;strokeColor=none;fillColor=none;align=left;verticalAlign=bottom;whiteSpace=wrap;rounded=0;fontSize=14;labelPosition=right;verticalLabelPosition=top;" parent="1" vertex="1">
                    <mxGeometry x="-848" y="190" width="175" height="20" as="geometry"/>
                </mxCell>
                <mxCell id="4ESrfmdc0MQb4VluyIVh-39" value="288kb (3sec)" style="text;html=1;strokeColor=none;fillColor=none;align=center;verticalAlign=middle;whiteSpace=wrap;rounded=0;" parent="1" vertex="1">
                    <mxGeometry x="-130" y="190" width="110" height="20" as="geometry"/>
                </mxCell>
                <mxCell id="4ESrfmdc0MQb4VluyIVh-45" value="&lt;ul style=&quot;font-size: 10px;&quot;&gt;&lt;li style=&quot;font-size: 10px;&quot;&gt;加速度（1kHz）&lt;/li&gt;&lt;/ul&gt;" style="text;html=1;strokeColor=none;fillColor=none;align=left;verticalAlign=top;whiteSpace=wrap;rounded=0;fontSize=10;labelPosition=right;verticalLabelPosition=bottom;movable=1;resizable=1;rotatable=1;deletable=1;editable=1;locked=0;connectable=1;" parent="1" vertex="1">
                    <mxGeometry x="-437.5" y="80" width="175" height="20" as="geometry"/>
                </mxCell>
                <mxCell id="4ESrfmdc0MQb4VluyIVh-47" value="" style="endArrow=none;html=1;rounded=0;fillColor=#dae8fc;strokeColor=#6c8ebf;strokeWidth=3;endFill=0;shape=link;targetPerimeterSpacing=0;width=14.838709677419352;" parent="1" edge="1">
                    <mxGeometry width="50" height="50" relative="1" as="geometry">
                        <mxPoint x="10" y="20" as="sourcePoint"/>
                        <mxPoint x="10" y="770" as="targetPoint"/>
                    </mxGeometry>
                </mxCell>
                <mxCell id="4ESrfmdc0MQb4VluyIVh-89" value="CAN-BUS" style="edgeLabel;html=1;align=center;verticalAlign=middle;resizable=0;points=[];fontSize=32;fontFamily=Helvetica;fontColor=default;horizontal=0;" parent="4ESrfmdc0MQb4VluyIVh-47" vertex="1" connectable="0">
                    <mxGeometry x="0.048" y="6" relative="1" as="geometry">
                        <mxPoint x="24" y="7" as="offset"/>
                    </mxGeometry>
                </mxCell>
                <mxCell id="4ESrfmdc0MQb4VluyIVh-48" value="" style="endArrow=none;html=1;rounded=0;fillColor=#dae8fc;strokeColor=#6c8ebf;strokeWidth=3;endFill=0;startArrow=classic;startFill=1;" parent="1" edge="1">
                    <mxGeometry width="50" height="50" relative="1" as="geometry">
                        <mxPoint x="-250" y="339.31" as="sourcePoint"/>
                        <mxPoint y="339.31" as="targetPoint"/>
                    </mxGeometry>
                </mxCell>
                <mxCell id="4ESrfmdc0MQb4VluyIVh-50" value="&lt;ul style=&quot;font-size: 10px;&quot;&gt;&lt;li style=&quot;font-size: 10px;&quot;&gt;フライトモード（100Hz）&lt;/li&gt;&lt;/ul&gt;" style="text;html=1;strokeColor=none;fillColor=none;align=left;verticalAlign=top;whiteSpace=wrap;rounded=0;fontSize=10;labelPosition=right;verticalLabelPosition=bottom;" parent="1" vertex="1">
                    <mxGeometry x="-425" y="310" width="175" height="20" as="geometry"/>
                </mxCell>
                <mxCell id="4ESrfmdc0MQb4VluyIVh-51" value="遅延送信&lt;br&gt;制御" style="rounded=0;whiteSpace=wrap;html=1;" parent="1" vertex="1">
                    <mxGeometry x="-410" y="290" width="80" height="30" as="geometry"/>
                </mxCell>
                <mxCell id="4ESrfmdc0MQb4VluyIVh-55" value="" style="endArrow=none;html=1;rounded=0;exitX=0.5;exitY=0;exitDx=0;exitDy=0;" parent="1" source="4ESrfmdc0MQb4VluyIVh-51" edge="1">
                    <mxGeometry width="50" height="50" relative="1" as="geometry">
                        <mxPoint x="-400" y="270" as="sourcePoint"/>
                        <mxPoint x="-370" y="260" as="targetPoint"/>
                        <Array as="points">
                            <mxPoint x="-370" y="260"/>
                        </Array>
                    </mxGeometry>
                </mxCell>
                <mxCell id="4ESrfmdc0MQb4VluyIVh-59" value="" style="rounded=0;whiteSpace=wrap;html=1;movable=0;resizable=0;rotatable=0;deletable=0;editable=0;locked=1;connectable=0;" parent="1" vertex="1">
                    <mxGeometry x="-580" y="460" width="330" height="270" as="geometry"/>
                </mxCell>
                <mxCell id="4ESrfmdc0MQb4VluyIVh-60" value="" style="endArrow=none;html=1;rounded=0;fillColor=#dae8fc;strokeColor=#6c8ebf;strokeWidth=3;endFill=0;startArrow=classic;startFill=1;" parent="1" edge="1">
                    <mxGeometry width="50" height="50" relative="1" as="geometry">
                        <mxPoint x="-252" y="680" as="sourcePoint"/>
                        <mxPoint x="0.5" y="680" as="targetPoint"/>
                    </mxGeometry>
                </mxCell>
                <mxCell id="4ESrfmdc0MQb4VluyIVh-61" value="&lt;ul style=&quot;font-size: 10px;&quot;&gt;&lt;li style=&quot;font-size: 10px;&quot;&gt;温度（100Hz）&lt;/li&gt;&lt;/ul&gt;" style="text;html=1;strokeColor=none;fillColor=none;align=left;verticalAlign=top;whiteSpace=wrap;rounded=0;fontSize=10;labelPosition=right;verticalLabelPosition=bottom;" parent="1" vertex="1">
                    <mxGeometry x="-425" y="650" width="175" height="20" as="geometry"/>
                </mxCell>
                <mxCell id="4ESrfmdc0MQb4VluyIVh-62" value="バルブ制御" style="rounded=0;whiteSpace=wrap;html=1;" parent="1" vertex="1">
                    <mxGeometry x="-397.5" y="580" width="95" height="40" as="geometry"/>
                </mxCell>
                <mxCell id="4ESrfmdc0MQb4VluyIVh-68" value="" style="endArrow=classic;html=1;rounded=0;fillColor=#dae8fc;strokeColor=#6c8ebf;strokeWidth=3;endFill=1;" parent="1" edge="1">
                    <mxGeometry width="50" height="50" relative="1" as="geometry">
                        <mxPoint x="-250" y="520" as="sourcePoint"/>
                        <mxPoint y="520" as="targetPoint"/>
                    </mxGeometry>
                </mxCell>
                <mxCell id="4ESrfmdc0MQb4VluyIVh-70" value="&lt;ul style=&quot;font-size: 10px;&quot;&gt;&lt;li style=&quot;font-size: 10px;&quot;&gt;イベント&lt;/li&gt;&lt;li style=&quot;font-size: 10px;&quot;&gt;バルブ角度&lt;/li&gt;&lt;li style=&quot;font-size: 10px;&quot;&gt;温度&lt;/li&gt;&lt;/ul&gt;" style="text;html=1;strokeColor=none;fillColor=none;align=left;verticalAlign=top;whiteSpace=wrap;rounded=0;fontSize=10;labelPosition=right;verticalLabelPosition=bottom;" parent="1" vertex="1">
                    <mxGeometry x="-437.5" y="500" width="175" height="20" as="geometry"/>
                </mxCell>
                <mxCell id="4ESrfmdc0MQb4VluyIVh-72" value="" style="endArrow=none;html=1;rounded=0;strokeWidth=3;endFill=0;startArrow=classic;startFill=1;" parent="1" edge="1">
                    <mxGeometry width="50" height="50" relative="1" as="geometry">
                        <mxPoint x="-250" y="520" as="sourcePoint"/>
                        <mxPoint x="-350" y="520" as="targetPoint"/>
                        <Array as="points"/>
                    </mxGeometry>
                </mxCell>
                <mxCell id="4ESrfmdc0MQb4VluyIVh-74" value="" style="endArrow=none;html=1;rounded=0;strokeWidth=3;endFill=0;startArrow=classic;startFill=1;" parent="1" edge="1">
                    <mxGeometry width="50" height="50" relative="1" as="geometry">
                        <mxPoint x="-350.14" y="520" as="sourcePoint"/>
                        <mxPoint x="-350.14" y="580" as="targetPoint"/>
                        <Array as="points"/>
                    </mxGeometry>
                </mxCell>
                <mxCell id="4ESrfmdc0MQb4VluyIVh-77" value="熱電対制御" style="rounded=0;whiteSpace=wrap;html=1;" parent="1" vertex="1">
                    <mxGeometry x="-540" y="660" width="95" height="40" as="geometry"/>
                </mxCell>
                <mxCell id="3" style="edgeStyle=none;html=1;strokeWidth=3;fillColor=#f8cecc;strokeColor=#b85450;" edge="1" parent="1" source="4ESrfmdc0MQb4VluyIVh-62">
                    <mxGeometry relative="1" as="geometry">
                        <mxPoint x="-170" y="600" as="targetPoint"/>
                    </mxGeometry>
                </mxCell>
                <mxCell id="5" value="&lt;ul&gt;&lt;li style=&quot;&quot;&gt;角度&lt;/li&gt;&lt;li style=&quot;&quot;&gt;速度&lt;/li&gt;&lt;/ul&gt;" style="edgeLabel;html=1;align=center;verticalAlign=middle;resizable=0;points=[];" vertex="1" connectable="0" parent="3">
                    <mxGeometry x="0.6596" relative="1" as="geometry">
                        <mxPoint x="-17" y="40" as="offset"/>
                    </mxGeometry>
                </mxCell>
                <mxCell id="4ESrfmdc0MQb4VluyIVh-78" value="" style="endArrow=none;html=1;rounded=0;strokeWidth=3;endFill=0;startArrow=none;startFill=0;exitX=0.5;exitY=1;exitDx=0;exitDy=0;entryX=0.5;entryY=0;entryDx=0;entryDy=0;" parent="1" source="4ESrfmdc0MQb4VluyIVh-70" target="4ESrfmdc0MQb4VluyIVh-77" edge="1">
                    <mxGeometry width="50" height="50" relative="1" as="geometry">
                        <mxPoint x="-510" y="500" as="sourcePoint"/>
                        <mxPoint x="-490" y="660" as="targetPoint"/>
                        <Array as="points">
                            <mxPoint x="-492" y="520"/>
                        </Array>
                    </mxGeometry>
                </mxCell>
                <mxCell id="4ESrfmdc0MQb4VluyIVh-79" value="&lt;ul style=&quot;font-size: 10px;&quot;&gt;&lt;li style=&quot;font-size: 10px;&quot;&gt;温度&lt;/li&gt;&lt;li style=&quot;font-size: 10px;&quot;&gt;イベント&lt;/li&gt;&lt;/ul&gt;" style="text;html=1;strokeColor=none;fillColor=none;align=left;verticalAlign=top;whiteSpace=wrap;rounded=0;fontSize=10;labelPosition=right;verticalLabelPosition=bottom;" parent="1" vertex="1">
                    <mxGeometry x="-620" y="590" width="108.75" height="20" as="geometry"/>
                </mxCell>
                <mxCell id="dZTlF90LN_YW0uTTz98g-3" value="" style="endArrow=none;html=1;rounded=0;strokeWidth=3;endFill=0;startArrow=classic;startFill=1;" parent="1" edge="1">
                    <mxGeometry width="50" height="50" relative="1" as="geometry">
                        <mxPoint x="-370" y="320" as="sourcePoint"/>
                        <mxPoint x="-370" y="340" as="targetPoint"/>
                        <Array as="points">
                            <mxPoint x="-370" y="340"/>
                            <mxPoint x="-250" y="340"/>
                        </Array>
                    </mxGeometry>
                </mxCell>
                <mxCell id="dZTlF90LN_YW0uTTz98g-4" value="" style="endArrow=none;html=1;rounded=0;strokeWidth=3;" parent="1" edge="1">
                    <mxGeometry width="50" height="50" relative="1" as="geometry">
                        <mxPoint x="-310" y="250" as="sourcePoint"/>
                        <mxPoint x="-190" y="230" as="targetPoint"/>
                        <Array as="points">
                            <mxPoint x="-190" y="250"/>
                        </Array>
                    </mxGeometry>
                </mxCell>
                <mxCell id="dZTlF90LN_YW0uTTz98g-5" value="" style="endArrow=none;html=1;rounded=0;" parent="1" edge="1">
                    <mxGeometry width="50" height="50" relative="1" as="geometry">
                        <mxPoint x="-210" y="200" as="sourcePoint"/>
                        <mxPoint x="-170" y="200" as="targetPoint"/>
                        <Array as="points">
                            <mxPoint x="-190" y="230"/>
                        </Array>
                    </mxGeometry>
                </mxCell>
                <mxCell id="dZTlF90LN_YW0uTTz98g-6" value="" style="endArrow=none;html=1;rounded=0;" parent="1" edge="1">
                    <mxGeometry width="50" height="50" relative="1" as="geometry">
                        <mxPoint x="-190" y="230" as="sourcePoint"/>
                        <mxPoint x="-190" y="200" as="targetPoint"/>
                    </mxGeometry>
                </mxCell>
                <mxCell id="4ESrfmdc0MQb4VluyIVh-53" value="" style="verticalLabelPosition=bottom;shadow=0;dashed=0;align=center;html=1;verticalAlign=top;shape=mxgraph.electrical.logic_gates.logic_gate;operation=and;" parent="1" vertex="1">
                    <mxGeometry x="-370" y="230" width="80" height="40" as="geometry"/>
                </mxCell>
                <mxCell id="dZTlF90LN_YW0uTTz98g-7" value="SPI 96kbps" style="text;html=1;strokeColor=none;fillColor=none;align=left;verticalAlign=bottom;whiteSpace=wrap;rounded=0;fontSize=14;labelPosition=right;verticalLabelPosition=top;" parent="1" vertex="1">
                    <mxGeometry x="-413" y="110" width="175" height="20" as="geometry"/>
                </mxCell>
                <mxCell id="dZTlF90LN_YW0uTTz98g-8" value="" style="endArrow=none;html=1;rounded=0;fillColor=#d5e8d4;strokeColor=#82b366;strokeWidth=3;endFill=0;entryX=0;entryY=0.25;entryDx=0;entryDy=0;startArrow=classic;startFill=1;" parent="1" edge="1">
                    <mxGeometry width="50" height="50" relative="1" as="geometry">
                        <mxPoint x="-250" y="159.72000000000003" as="sourcePoint"/>
                        <mxPoint x="-120" y="160" as="targetPoint"/>
                        <Array as="points">
                            <mxPoint x="-150" y="160"/>
                        </Array>
                    </mxGeometry>
                </mxCell>
                <mxCell id="dZTlF90LN_YW0uTTz98g-9" value="&lt;ul style=&quot;font-size: 10px;&quot;&gt;&lt;li style=&quot;font-size: 10px;&quot;&gt;加速度（200Hz）&lt;/li&gt;&lt;/ul&gt;" style="text;html=1;strokeColor=none;fillColor=none;align=left;verticalAlign=top;whiteSpace=wrap;rounded=0;fontSize=10;labelPosition=right;verticalLabelPosition=bottom;movable=1;resizable=1;rotatable=1;deletable=1;editable=1;locked=0;connectable=1;" parent="1" vertex="1">
                    <mxGeometry x="-437.5" y="130.2" width="175" height="20" as="geometry"/>
                </mxCell>
                <mxCell id="dZTlF90LN_YW0uTTz98g-11" value="SPI 12.2kbps" style="text;html=1;strokeColor=none;fillColor=none;align=left;verticalAlign=bottom;whiteSpace=wrap;rounded=0;fontSize=14;labelPosition=right;verticalLabelPosition=top;" parent="1" vertex="1">
                    <mxGeometry x="-410" y="160" width="175" height="20" as="geometry"/>
                </mxCell>
                <mxCell id="dZTlF90LN_YW0uTTz98g-12" value="" style="endArrow=none;html=1;rounded=0;strokeWidth=3;endFill=0;startArrow=classic;startFill=1;" parent="1" edge="1">
                    <mxGeometry width="50" height="50" relative="1" as="geometry">
                        <mxPoint x="-353" y="240" as="sourcePoint"/>
                        <mxPoint x="-250" y="160" as="targetPoint"/>
                        <Array as="points">
                            <mxPoint x="-390" y="240"/>
                            <mxPoint x="-390" y="160"/>
                        </Array>
                    </mxGeometry>
                </mxCell>
                <mxCell id="dZTlF90LN_YW0uTTz98g-13" value="" style="endArrow=none;html=1;rounded=0;strokeWidth=3;endFill=0;startArrow=classic;startFill=1;" parent="1" edge="1">
                    <mxGeometry width="50" height="50" relative="1" as="geometry">
                        <mxPoint x="-250" y="110" as="sourcePoint"/>
                        <mxPoint x="-540" y="190" as="targetPoint"/>
                        <Array as="points">
                            <mxPoint x="-500" y="110"/>
                            <mxPoint x="-500" y="190"/>
                        </Array>
                    </mxGeometry>
                </mxCell>
                <mxCell id="4ESrfmdc0MQb4VluyIVh-76" value="&lt;ul style=&quot;font-size: 10px;&quot;&gt;&lt;li style=&quot;font-size: 10px;&quot;&gt;イベント&lt;/li&gt;&lt;li style=&quot;font-size: 10px;&quot;&gt;バルブ角度&lt;/li&gt;&lt;/ul&gt;" style="text;html=1;strokeColor=none;fillColor=none;align=left;verticalAlign=top;whiteSpace=wrap;rounded=0;fontSize=10;labelPosition=right;verticalLabelPosition=bottom;" parent="1" vertex="1">
                    <mxGeometry x="-478.75" y="510" width="108.75" height="20" as="geometry"/>
                </mxCell>
                <mxCell id="dZTlF90LN_YW0uTTz98g-15" value="" style="endArrow=classic;html=1;rounded=0;strokeWidth=3;endFill=1;startArrow=none;startFill=0;exitX=0.5;exitY=1;exitDx=0;exitDy=0;entryX=1;entryY=0.5;entryDx=0;entryDy=0;" parent="1" target="4ESrfmdc0MQb4VluyIVh-77" edge="1">
                    <mxGeometry width="50" height="50" relative="1" as="geometry">
                        <mxPoint x="-250" y="680" as="sourcePoint"/>
                        <mxPoint x="-392" y="820" as="targetPoint"/>
                        <Array as="points">
                            <mxPoint x="-392" y="680"/>
                        </Array>
                    </mxGeometry>
                </mxCell>
                <mxCell id="dZTlF90LN_YW0uTTz98g-17" value="バルブ制御モジュール" style="text;html=1;strokeColor=none;fillColor=none;align=left;verticalAlign=middle;whiteSpace=wrap;rounded=0;fontSize=20;" parent="1" vertex="1">
                    <mxGeometry x="-800" y="440" width="210" height="30" as="geometry"/>
                </mxCell>
                <mxCell id="dZTlF90LN_YW0uTTz98g-18" value="ミッションモジュール" style="text;html=1;strokeColor=none;fillColor=none;align=left;verticalAlign=middle;whiteSpace=wrap;rounded=0;fontSize=20;" parent="1" vertex="1">
                    <mxGeometry x="-800" y="40" width="210" height="30" as="geometry"/>
                </mxCell>
                <mxCell id="2" style="edgeStyle=none;html=1;strokeWidth=3;fillColor=none;" edge="1" parent="1" source="4ESrfmdc0MQb4VluyIVh-62">
                    <mxGeometry relative="1" as="geometry">
                        <mxPoint x="-249.99999999999977" y="600" as="targetPoint"/>
                    </mxGeometry>
                </mxCell>
                <mxCell id="6" value="サーボモーター" style="whiteSpace=wrap;html=1;" vertex="1" parent="1">
                    <mxGeometry x="-160" y="580" width="100" height="40" as="geometry"/>
                </mxCell>
            </root>
        </mxGraphModel>
    </diagram>
</mxfile>